<svg width="100%" height="100%" viewBox="0 0 542 542" version="1.1" 
xmlns="http://www.w3.org/2000/svg" 
xmlns:xlink="http://www.w3.org/1999/xlink" xml:space="preserve" xmlns:serif="http://www.serif.com/" 
style="fill-rule:evenodd;clip-rule:evenodd;stroke-linejoin:round;stroke-miterlimit:2;"
>
<path id="DOT" d="M186.713,186.567l-0,-104.254l-104.325,-0l-0,104.254l104.325,-0Zm-14.63,-89.625l0,75l-75.071,-0l0.001,-75l75.07,-0Z" style="fill:#49c1a8;">
    <animate dur="3s" values="#49c1a8; #000; #49c1a8;" keyTimes="0; 0.5; 1" attributeName="fill" repeatCount="indefinite"/>
</path>
<path id="BODY" d="M366.108,365.825l89.7,0l0,-283.513l-194.025,0.001l0,104.254l89.7,-0l0,75.004l-89.7,-0l0,193.883l104.325,0l0,-89.629Zm-179.396,89.629l0.001,-193.883l-104.325,-0l-0,193.883l104.325,0Zm-89.7,-89.629l75.07,0l0,75l-75.071,0l0.001,-75Zm179.4,0l75.07,0l0,75l-75.07,0l-0,-75Zm164.77,-89.629l-75.075,-0l0,75l75.075,-0l0,-75Zm-164.77,75l-0,-75l75.07,-0l0,75l-75.07,-0Zm-179.401,-0l0.001,-75l75.07,-0l0,75l-75.071,-0Zm344.171,-164.629l-75.075,-0l0,75.004l75.075,-0l0,-75.004Zm-89.7,-89.625l0,75l-75.07,-0l-0,-75l75.07,-0Zm14.625,-0l0,75l75.075,-0l0,-75l-75.075,-0Z" style="fill:#49c1a8;"/>
</svg>