<?xml version="1.0" encoding="UTF-8" standalone="no"?>
<!DOCTYPE svg PUBLIC "-//W3C//DTD SVG 1.1//EN" "http://www.w3.org/Graphics/SVG/1.1/DTD/svg11.dtd">
<svg width="100%" height="100%" viewBox="0 0 542 542" version="1.1" xmlns="http://www.w3.org/2000/svg" xmlns:xlink="http://www.w3.org/1999/xlink" xml:space="preserve" xmlns:serif="http://www.serif.com/" style="fill-rule:evenodd;clip-rule:evenodd;stroke-linejoin:round;stroke-miterlimit:2;">
    <path id="BODY" d="M366.108,365.825L455.808,365.825L455.808,82.312L261.783,82.313L261.783,186.567L351.483,186.567L351.483,261.571L261.783,261.571L261.783,455.454L366.108,455.454L366.108,365.825ZM186.712,455.454L186.713,261.571L82.388,261.571L82.388,455.454L186.713,455.454L186.712,455.454ZM97.012,365.825L172.082,365.825L172.082,440.825L97.011,440.825L97.012,365.825ZM276.412,365.825L351.482,365.825L351.482,440.825L276.412,440.825L276.412,365.825ZM441.182,276.196L366.107,276.196L366.107,351.196L441.182,351.196L441.182,276.196ZM276.412,351.196L276.412,276.196L351.482,276.196L351.482,351.196L276.412,351.196ZM97.011,351.196L97.012,276.196L172.082,276.196L172.082,351.196L97.011,351.196ZM441.182,186.567L366.107,186.567L366.107,261.571L441.182,261.571L441.182,186.567ZM351.482,96.942L351.482,171.942L276.412,171.942L276.412,96.942L351.482,96.942ZM366.107,96.942L366.107,171.942L441.182,171.942L441.182,96.942L366.107,96.942Z" style="fill:rgb(73,193,168);"/>
    <rect id="DOT-F" serif:id="DOT F" x="82.388" y="82.313" width="104.325" height="104.254" style="fill:rgb(73,193,168);">
    <animate dur="3s" values="#fff; #49c1a8; #fff;" keyTimes="0; 0.5; 1" attributeName="fill" repeatCount="indefinite"/>
    </rect>
    <path id="DOT" d="M186.713,186.567L186.713,82.313L82.388,82.313L82.388,186.567L186.713,186.567ZM172.083,96.942L172.083,171.942L97.012,171.942L97.013,96.942L172.083,96.942Z" style="fill:rgb(73,193,168);"/>
</svg>
