<?xml version="1.0" encoding="UTF-8" standalone="no"?><!DOCTYPE svg PUBLIC "-//W3C//DTD SVG 1.1//EN" "http://www.w3.org/Graphics/SVG/1.1/DTD/svg11.dtd"><svg width="100%" height="100%" viewBox="0 0 542 130" version="1.1" xmlns="http://www.w3.org/2000/svg" xmlns:xlink="http://www.w3.org/1999/xlink" xml:space="preserve" xmlns:serif="http://www.serif.com/" style="fill-rule:evenodd;clip-rule:evenodd;stroke-linejoin:round;stroke-miterlimit:2;"><g id="New-Group"><path id="Path" d="M0.442,129.167l-0,-129.167l80.829,0l-0,80.829l-32.425,0l-0,48.338l-48.404,-0Z" style="fill-rule:nonzero;"/><rect id="Path-1" x="81.808" y="0" width="129.1" height="129.1" style="fill:#1ee5ce;fill-rule:nonzero;"/><rect id="Path-2" x="49.046" y="80.763" width="16.179" height="16.179" style="fill:#1ee5ce;fill-rule:nonzero;"/><rect id="Path-3" x="65.663" y="112.808" width="16.179" height="16.179" style="fill:#1ee5ce;fill-rule:nonzero;"/><g><path d="M333.961,129.167l31.061,-0l-0,-42.86l15.096,-0c27.243,-0 51.015,-13.535 51.015,-44.248c0,-31.928 -23.425,-41.992 -51.882,-41.992l-45.29,-0l0,129.1Zm31.061,-67.327l-0,-37.307l12.667,0c14.923,0 23.252,4.512 23.252,17.526c-0,12.667 -7.288,19.781 -22.385,19.781l-13.534,0Z" style="fill-rule:nonzero;"/><path d="M475.555,129.167l31.06,-0l0,-103.419l35.052,-0l-0,-25.681l-100.99,-0l0,25.681l34.878,-0l-0,103.419Z" style="fill-rule:nonzero;"/></g></g></svg>