<?xml version="1.0" encoding="UTF-8" standalone="no"?><!DOCTYPE svg PUBLIC "-//W3C//DTD SVG 1.1//EN" "http://www.w3.org/Graphics/SVG/1.1/DTD/svg11.dtd"><svg width="100%" height="100%" viewBox="0 0 3202 1604" version="1.1" xmlns="http://www.w3.org/2000/svg" xmlns:xlink="http://www.w3.org/1999/xlink" xml:space="preserve" xmlns:serif="http://www.serif.com/" style="fill-rule:evenodd;clip-rule:evenodd;stroke-linejoin:round;stroke-miterlimit:2;"><clipPath id="_clip1"><rect x="1853.84" y="251.793" width="1100.33" height="1100.33"/></clipPath><g clip-path="url(#_clip1)"><g><rect x="1853.84" y="251.793" width="1100.33" height="1099.45" style="fill:#49c1a8;"/></g><g><path d="M2602.34,999.711l183.388,-0l-0,-579.629l-396.681,-0l-0,213.146l183.388,0l-0,153.337l-183.388,-0l-0,396.39l213.293,0l-0,-183.244Zm-366.776,183.244l-0,-396.39l-213.293,-0l-0,396.39l213.293,0Zm-183.388,-183.244l153.483,-0l-0,153.339l-153.483,0l-0,-153.339Zm366.776,-0l153.483,-0l-0,153.339l-153.483,0l-0,-153.339Zm336.871,-183.242l-153.483,0l-0,153.337l153.483,-0l-0,-153.337Zm-336.871,153.337l-0,-153.337l153.483,0l-0,153.337l-153.483,-0Zm-366.776,-0l-0,-153.337l153.483,0l-0,153.337l-153.483,-0Zm703.647,-336.578l-153.483,0l-0,153.337l153.483,-0l-0,-153.337Zm-520.259,0l-0,-213.146l-213.293,-0l-0,213.146l213.293,0Zm336.871,-183.241l-0,153.336l-153.483,0l-0,-153.336l153.483,-0Zm-366.776,-0l-0,153.336l-153.483,0l-0,-153.336l153.483,-0Zm396.681,-0l-0,153.336l153.483,0l-0,-153.336l-153.483,-0Z" style="fill:#fffafa;"/></g></g></svg>